<svg viewBox="0 0 547 560" fill="none" xmlns="http://www.w3.org/2000/svg">
<path d="M399.285 65.0821C430.152 92.8762 450.353 131.656 482.783 187.395C515.365 243.135 560.293 315.827 543.255 359.165C526.216 402.502 446.909 416.472 372.027 444.891C297.144 473.311 226.644 516.016 161.79 507.691C96.9353 499.366 37.726 440.024 22.8345 374.392C7.79214 308.602 36.9304 236.535 57.9198 170.903C78.7582 105.278 91.4479 46.06 127.946 19.2489C164.444 -7.56209 224.765 -1.80115 275.839 9.34261C326.906 20.6239 368.419 37.2948 399.285 65.0821Z" fill="white"/>
<path d="M117.349 532.632H95.879V558.116H64.4018V532.632H0V523.008L74.4095 421.084H95.879V505.477H117.349V532.632ZM64.4018 505.477V473.723L41.8965 505.477H64.4018Z" fill="#1F1F1F"/>
<path d="M135.272 489.81C135.272 450.329 146.734 419.201 186.716 419.201C226.5 419.201 237.571 450.329 237.571 489.81C237.571 529.085 226.528 560 186.716 560C146.734 560 135.272 529.085 135.272 489.81ZM206.135 489.81C206.135 465.996 201.546 447.614 186.751 447.614C171.743 447.614 166.536 465.996 166.536 489.81C166.536 513.411 171.743 531.381 186.751 531.381C201.546 531.408 206.135 513.411 206.135 489.81Z" fill="#1F1F1F"/>
<path d="M367.04 532.632H345.57V558.116H314.1V532.632H249.678V523.008L324.101 421.084H345.57V505.477H367.04V532.632ZM314.1 505.477V473.723L291.588 505.477H314.1Z" fill="#1F1F1F"/>
<path d="M368.165 533.264H379.833V523.365H368.165V533.264Z" fill="#FFAE81"/>
<path d="M380.93 531.718V541.617H353.171V538.015L367.609 531.718H380.93Z" fill="black"/>
<path d="M186.806 411.824H198.473V401.925H186.806V411.824Z" fill="#FFAE81"/>
<path d="M199.571 410.277V420.177H171.818V416.581L186.257 410.277H199.571Z" fill="black"/>
<path d="M367.76 277.879C368.35 283.503 380.745 525.977 380.745 525.977H367.76L304.621 297.671L367.76 277.879Z" fill="#060606"/>
<path d="M374.427 251.164C374.427 284.094 362.348 313.723 337.895 313.723C304.326 313.723 259.884 292.275 247.654 280.168C244.602 289.215 201.306 403.169 201.306 403.169H183.376C183.376 403.169 194.865 270.489 216.403 236.46C223.489 227 281.313 229.365 310.526 236.46C339.74 243.554 374.427 251.164 374.427 251.164Z" fill="#121212"/>
<path d="M287.719 59.3005C287.923 58.2833 288.492 57.3766 289.319 56.7529C290.147 56.1293 291.174 55.8322 292.205 55.9182C294.832 56.1038 299.126 63.0609 299.126 68.6912C299.126 74.3216 297.542 76.439 298.022 80.5294C298.502 84.6198 308.894 140.084 308.894 143.467C311.514 143.652 320.891 142.339 320.891 142.339L314.326 168.834H295.216L282.87 62.1191L287.719 59.3005Z" fill="#FFAE81"/>
<path d="M306.047 68.7462L302.021 85.0529C302.021 85.0529 262.299 80.4262 257.964 79.3538C253.629 78.2814 260.159 51.3191 264.61 52.419C269.062 53.519 306.047 68.7462 306.047 68.7462Z" fill="black"/>
<path d="M342.443 116.985C393.256 116.985 380.724 248.559 374.791 253.481C368.858 258.403 305.684 241.794 300.436 234.466C295.189 227.138 305.176 116.985 342.443 116.985Z" fill="#EF4476"/>
<path d="M324.307 150.389C321.515 151.338 305.142 157.738 305.142 157.738C304.867 154.438 292.281 88.992 291.506 84.9841C293.094 80.9837 293.88 76.7086 293.817 72.4035C293.817 61.6585 289.462 52.9346 284.091 52.9346C278.72 52.9346 274.371 61.6585 274.371 72.4035C274.295 76.9009 275.159 81.3644 276.909 85.5066C276.305 93.6874 270.887 171.364 281.944 182.439C293.605 194.126 321.954 183.587 339.184 175.736C342.875 174.457 337.847 146.718 324.307 150.389Z" fill="#FFC29F"/>
<path d="M312.148 75.4822L301.872 72.7477L299.966 79.9436L310.242 82.6781L312.148 75.4822Z" fill="black"/>
<path d="M374.825 141.157C382.569 156.226 351.902 183.374 343.417 181.353C334.932 179.331 321.247 148.987 323.806 143.542C326.364 138.097 367.294 126.493 374.825 141.157Z" fill="#E93268"/>
<path d="M345.557 129.738C345.557 132.288 330.034 132.935 330.034 129.738V100.37H345.557V129.738Z" fill="#FFAE81"/>
<path d="M332.188 117.419C343.379 117.419 352.45 102.716 352.45 84.5785C352.45 66.4414 343.379 51.7384 332.188 51.7384C320.997 51.7384 311.926 66.4414 311.926 84.5785C311.926 102.716 320.997 117.419 332.188 117.419Z" fill="#FFC29F"/>
<path d="M317.008 62.8203C316.854 65.1789 317.329 67.5363 318.383 69.6504C319.438 71.7646 321.035 73.5595 323.01 74.8509C329.053 78.9757 333.361 77.1539 337.792 81.0381C340.131 83.3823 345.858 87.9127 345.913 94.911C345.913 100.088 347.608 102.7 349.096 102.7C350.585 102.7 354.508 101.669 357.032 101.669C381.822 101.669 410.932 127.318 466.781 127.318C495.953 127.318 541.732 119.942 541.732 77.0027C541.732 53.8145 533.405 25.7936 489.389 25.7936C461.437 25.7936 441.854 39.5428 418.889 39.5428C389.394 39.5428 378.022 28.839 357.643 28.839C343.129 28.839 310.465 37.2673 310.465 59.3486C310.465 67.7357 313.085 70.1693 313.894 70.6024C314.155 69.6812 315.753 64.9239 317.008 62.8203Z" fill="#7A3F25"/>
<path d="M343.828 97.5372C346.685 97.5372 349 95.2164 349 92.3537C349 89.4909 346.685 87.1702 343.828 87.1702C340.972 87.1702 338.656 89.4909 338.656 92.3537C338.656 95.2164 340.972 97.5372 343.828 97.5372Z" fill="#FFC29F"/>
</svg>
