<svg xmlns="http://www.w3.org/2000/svg" xmlns:xlink="http://www.w3.org/1999/xlink" viewBox="0 0 943 688" fill="none"><path d="M503.4 69.85c13.895 0 25.16-11.264 25.16-25.16s-11.265-25.16-25.16-25.16-25.16 11.264-25.16 25.16 11.265 25.16 25.16 25.16z" fill="#d37c59"/><g fill="#de8e68"><path d="M549.2 62.34c17.215 0 31.17-13.955 31.17-31.17S566.415 0 549.2 0s-31.17 13.955-31.17 31.17 13.955 31.17 31.17 31.17zm128.43 3c17.215 0 31.17-13.955 31.17-31.17S694.845 3 677.63 3s-31.17 13.955-31.17 31.17 13.955 31.17 31.17 31.17z"/><use xlink:href="#B"/><path d="M598.02 53.33c12.24 0 22.16-9.92 22.16-22.16S610.26 9 598.02 9s-22.16 9.92-22.16 22.16 9.92 22.16 22.16 22.16z"/></g><use xlink:href="#B" x="30.79" y="-6.74" fill="#d37c59"/><use xlink:href="#B" x="57.08" fill="#de8e68"/><path d="M710.67 75.85c13.895 0 25.16-11.264 25.16-25.16s-11.265-25.16-25.16-25.16S685.5 36.795 685.5 50.7s11.264 25.16 25.16 25.16zM578.5 90.13c17.215 0 31.17-13.955 31.17-31.17S595.705 27.8 578.5 27.8s-31.17 13.955-31.17 31.17 13.955 31.17 31.17 31.17z" fill="#d37c59"/><path d="M680.2 115.42c73.4 29.85 170.18 51.17 197.25 102.52 26.88 51.35-15.94 132.92-57.66 200.58S737.68 539.77 685.6 571.1c-51.9 31.33-115.5 40.22-198.18 66.55-82.68 26.14-184.27 69.7-237.85 38.93-53.4-30.78-58.76-136.07-71.37-226.73s-32.44-166.66-11.12-228.2 84-108.82 147.38-142 127.73-52.1 185-42.45c57.1 9.8 107.35 48.38 180.76 78.22z" fill="#fff"/><path d="M774.84 500.53h-339l26-383.57-26-88.43h339l-21 89.52 21 382.48z" fill="#fed385"/><g fill="#fcc486"><path d="M710.1 88.53H402.83l31.73-60h307.28l-31.73 60z"/><path d="M758.42 88.53h44.42l-16.6-60h-44.4l16.58 60z"/></g><path d="M440 438.54l-4.2 62h339l-14.7-268.3c-79.3 86.43-196.26 174.9-320.1 206.3z" fill="#fccd81"/><path d="M807.52 574.97c60.32 0 109.22-48.9 109.22-109.22s-48.9-109.22-109.22-109.22-109.22 48.9-109.22 109.22 48.9 109.22 109.22 109.22z" fill="#fd8369"/><use xlink:href="#C" fill="#d37c59"/><g fill="#de8e68"><use xlink:href="#D"/><use xlink:href="#D" x="223.08" y="5.22"/><use xlink:href="#E"/><use xlink:href="#E" x="-23.48" y="-20.87"/></g><use xlink:href="#E" x="53.5" y="-11.74" fill="#d37c59"/><use xlink:href="#E" x="99.15" fill="#de8e68"/><g fill="#d37c59"><use xlink:href="#C" x="360.07" y="10.44"/><use xlink:href="#D" x="50.88" y="48.27"/></g><path d="M768.94 568a109.22 109.22 0 0 0 71.308 2.048c23.33-7.318 43.528-22.252 57.363-42.4A109.22 109.22 0 0 0 889 393.06C867.27 494.27 822 544.48 768.94 568z" fill="#f76c54"/><path d="M629.72 518l-39.06-112.53a28.29 28.29 0 0 0-26.74-19H67.35c-5.855-.001-11.565 1.82-16.337 5.214A28.19 28.19 0 0 0 40.72 405.4L1.58 518.15a28.19 28.19 0 0 0 3.666 25.586 28.18 28.18 0 0 0 10.05 8.71c3.997 2.06 8.428 3.135 12.925 3.134H603c4.512-.002 8.96-1.084 12.968-3.154s7.466-5.07 10.08-8.747 4.312-7.927 4.95-12.394A28.29 28.29 0 0 0 629.72 518h0z" fill="#45d4ff"/><path d="M583.7 553.84v57.3h321.5v-57.3H583.7z" fill="#fcc486"/><path d="M629.72 518l-39.06-112.53a28.29 28.29 0 0 0-26.74-19h-77.57c-13.45 62.32-40.05 125.74-81 169.13H603c4.515-.001 8.964-1.083 12.975-3.154s7.47-5.073 10.085-8.753 4.312-7.932 4.95-12.402A28.29 28.29 0 0 0 629.72 518h0z" fill="#1ccff9"/><g fill="#fed385"><use xlink:href="#F"/><use xlink:href="#F" y="-67.08"/><use xlink:href="#F" x="-321.5" y="-0.7"/><path d="M583.7 586c20.843 0 37.74-16.897 37.74-37.74s-16.897-37.74-37.74-37.74-37.74 16.897-37.74 37.74S562.867 586 583.7 586z"/></g><g fill="#de8e68"><use xlink:href="#E" x="-231.76" y="187.41"/><path d="M157.96 610.9c10.68 0 19.34-8.66 19.34-19.34s-8.66-19.34-19.34-19.34-19.34 8.66-19.34 19.34 8.66 19.34 19.34 19.34z"/></g><path d="M458.15 441.02h-285v60h285v-60zm267.68-296.5h-241v79h241v-79z" fill="#f2f2f2"/><path d="M536.83 155.53h-37v54h37v-54zm147 15h-133v24h133v-24z" fill="#c4c4c4"/><defs ><path id="B" d="M611.54 65.34c12.24 0 22.16-9.92 22.16-22.16s-9.92-22.16-22.16-22.16-22.16 9.92-22.16 22.16 9.92 22.16 22.16 22.16z"/><path id="C" d="M132.93 430.9c24.14 0 43.7-19.57 43.7-43.7s-19.57-43.7-43.7-43.7-43.7 19.57-43.7 43.7 19.57 43.7 43.7 43.7z"/><path id="D" d="M212.52 417.85c29.9 0 54.14-24.24 54.14-54.14s-24.24-54.14-54.14-54.14-54.14 24.24-54.14 54.14 24.24 54.14 54.14 54.14z"/><path id="E" d="M320.8 423.07c21.257 0 38.5-17.233 38.5-38.5s-17.233-38.5-38.5-38.5-38.5 17.233-38.5 38.5 17.233 38.5 38.5 38.5z"/><path id="F" d="M905.2 653.78c20.843 0 37.74-16.897 37.74-37.74s-16.897-37.74-37.74-37.74-37.74 16.897-37.74 37.74 16.897 37.74 37.74 37.74z"/></defs></svg>